<?xml version="1.0" standalone="no"?>
<!DOCTYPE svg PUBLIC "-//W3C//DTD SVG 1.1//EN" "http://www.w3.org/Graphics/SVG/1.1/DTD/svg11.dtd" >
<svg xmlns="http://www.w3.org/2000/svg">
<metadata>Generated by IcoMoon</metadata>
<defs>
<font id="icomoon" horiz-adv-x="1024">
<font-face units-per-em="1024" ascent="960" descent="-64" />
<missing-glyph horiz-adv-x="1024" />
<glyph unicode="&#x20;" horiz-adv-x="512" d="" />
<glyph unicode="&#xe900;" glyph-name="telegram" d="M1020.16 798.293l-154.027-727.467c-10.667-51.627-41.813-64-85.333-40.107l-234.667 173.653-113.493-109.653c-12.8-12.8-23.467-23.893-46.933-23.893-30.72 0-25.6 11.52-35.84 40.533l-81.067 264.107-232.533 72.533c-50.347 14.933-50.773 49.493 11.093 74.667l907.093 349.867c41.387 18.347 81.067-10.24 65.707-74.24z" />
<glyph unicode="&#xe901;" glyph-name="messenger" d="M0 463.36c0 285.44 223.573 496.64 512 496.64s512-211.2 512-496.64-223.573-496.64-512-496.64c-51.627 0-101.547 6.827-148.053 19.627-3.193 0.894-6.86 1.408-10.647 1.408-6.032 0-11.76-1.304-16.917-3.646l0.257 0.104-101.973-44.8c-4.899-2.236-10.625-3.54-16.656-3.54-22.216 0-40.301 17.686-40.942 39.747l-0.001 0.059-2.987 91.307c-0.5 11.541-5.653 21.787-13.617 28.981l-0.036 0.032c-98.714 89.298-160.47 217.866-160.47 360.857 0 2.286 0.016 4.569 0.047 6.848l-0.004-0.345zM354.987 556.8l-150.187-238.933c-14.933-22.613 13.653-48.64 34.987-32l161.707 122.453c11.093 8.533 25.6 8.533 37.12 0l119.467-89.6c35.84-26.88 87.040-17.067 110.933 20.48l150.187 238.933c14.933 22.613-13.653 48.213-34.987 32l-161.707-122.453c-10.667-8.533-25.6-8.533-36.693 0l-119.467 89.6c-12.716 9.688-28.823 15.521-46.293 15.521-27.292 0-51.26-14.236-64.881-35.688l-0.186-0.313z" />
<glyph unicode="&#xe902;" glyph-name="viber" d="M486.315 959.915c-82.133-1.109-258.859-14.592-357.717-105.173-73.387-72.96-99.029-180.523-102.016-313.728-2.56-132.693-5.547-381.867 234.667-449.749v-103.253c0 0-1.621-41.387 25.685-49.92 33.707-10.667 52.907 21.291 84.907 55.424l59.733 67.413c164.267-13.653 290.133 17.877 304.64 22.571 33.28 10.667 221.056 34.603 251.776 283.819 31.573 257.323-15.36 419.456-99.84 492.843l-0.427 0.085c-25.6 23.467-128 98.133-357.12 98.987 0 0-16.896 1.067-44.288 0.683zM489.173 887.509c23.253 0.128 37.547-0.853 37.547-0.853 193.707-0.427 286.336-58.88 308.096-78.507 71.253-60.971 107.861-207.189 81.067-422.059-25.6-208.213-177.92-221.44-206.080-230.4-11.947-3.84-122.88-31.147-262.485-22.187 0 0-104.064-125.483-136.491-157.909-5.12-5.547-11.093-7.253-14.933-6.4-5.547 1.28-7.253 8.107-6.827 17.493l0.853 171.477c-203.563 56.32-191.616 268.885-189.483 379.819 2.56 110.933 23.467 201.899 85.333 263.339 83.499 75.52 233.6 85.76 303.403 86.187zM504.533 776.576c-0.013 0-0.028 0-0.043 0-7.046 0-12.757-5.712-12.757-12.757 0 0 0 0 0 0v0c0-7.069 5.731-12.8 12.8-12.8v0c1.364 0.028 2.971 0.044 4.583 0.044 65.1 0 124.152-25.892 167.421-67.939l-0.057 0.055c46.507-45.227 69.163-105.813 70.016-185.173 0-7.069 5.731-12.8 12.8-12.8v0 0.384c7.069 0 12.8 5.731 12.8 12.8v0c0.157 3.48 0.247 7.56 0.247 11.662 0 74.43-29.543 141.961-77.544 191.504l0.070-0.072c-50.773 49.493-114.859 75.093-190.336 75.093zM335.829 747.136c-1.727 0.259-3.721 0.408-5.748 0.408-7.549 0-14.619-2.053-20.681-5.631l0.19 0.104h-0.512c-17.493-10.24-33.621-23.040-48.981-40.107-11.52-13.653-17.963-27.264-19.669-40.491-0.279-2.039-0.438-4.396-0.438-6.791 0-5.823 0.941-11.426 2.678-16.666l-0.107 0.374 0.853-0.427c14.645-42.578 31.945-79.22 52.671-113.56l-1.471 2.627c28.652-51.472 61.491-95.882 99.246-135.571l-0.26 0.275 1.28-1.707 1.707-1.28 2.56-2.56c39.559-37.583 84.086-70.554 132.337-97.686l3.343-1.728c56.32-30.72 90.539-45.227 111.019-51.2v-0.427c5.973-1.707 11.435-2.56 16.981-2.56 18.235 1.369 34.519 8.773 47.083 20.196l-0.064-0.057c16.64 14.933 29.867 31.488 39.68 48.981v0.427c9.813 18.347 6.4 35.883-7.68 47.829-27.026 23.744-57.036 45.466-88.997 64.222l-2.736 1.484c-21.76 11.947-43.947 4.693-52.907-7.253l-19.2-24.277c-9.813-11.947-27.733-10.24-27.733-10.24l-0.512-0.427c-133.12 34.133-168.533 168.917-168.533 168.917s-1.707 18.347 10.667 27.733l23.893 19.2c11.52 9.387 19.627 31.573 7.253 53.333-20.207 34.7-41.93 64.712-66.261 92.376l0.555-0.643c-5.305 6.541-12.762 11.155-21.28 12.765l-0.224 0.035zM526.677 709.163c-7.051-0.024-12.757-5.746-12.757-12.8 0-7.069 5.731-12.8 12.8-12.8 0.015 0 0.030 0 0.045 0h-0.002c44.424-0.795 84.345-19.431 113.026-49.025l0.041-0.042c23.999-26.399 38.693-61.631 38.693-100.296 0-3.292-0.107-6.56-0.316-9.799l0.023 0.441c0.024-7.051 5.746-12.757 12.8-12.757 0 0 0 0 0 0v0l0.427-0.512c0 0 0 0 0 0 7.069 0 12.8 5.731 12.8 12.8 0 0.015 0 0.030 0 0.045v-0.002c1.28 50.773-14.507 93.44-45.653 127.573s-74.667 53.333-130.133 57.173c-0.268 0.020-0.581 0.031-0.896 0.031s-0.628-0.011-0.937-0.034l0.041 0.002zM547.584 640.085c-0.114 0.004-0.249 0.006-0.384 0.006-7.202 0-13.040-5.838-13.040-13.040 0-7.067 5.621-12.821 12.637-13.034h0.020c42.24-2.133 62.72-23.467 65.28-67.413 0.237-6.883 5.874-12.373 12.793-12.373 0.002 0 0.005 0 0.007 0h0.426c6.896 0.221 12.402 5.864 12.402 12.794 0 0.302-0.010 0.602-0.031 0.9l0.002-0.040c-2.987 57.173-34.133 89.216-89.6 92.203-0.076 0.002-0.166 0.003-0.256 0.003s-0.18-0.001-0.269-0.003h0.013z" />
<glyph unicode="&#xe903;" glyph-name="envelope" d="M928 832h-832c-53.024 0-96-42.976-96-96v-576c0-52.992 42.976-96 96-96h832c53.024 0 96 43.008 96 96v576c0 53.024-42.976 96-96 96zM87.712 128.32l-23.392 23.424 263.968 263.936 23.392-23.424-263.968-263.936zM936.288 128.32l-263.968 263.936 23.392 23.424 263.968-263.936-23.392-23.424zM544 341.6v-21.6h-64v21.6l-415.904 385.6 40.704 40.704 407.2-377.536 407.2 377.536 40.704-40.704-415.904-385.6z" />
<glyph unicode="&#xe904;" glyph-name="icon15" horiz-adv-x="1280" d="M209.046 954.842c-51.465-14.99-91.687-56.211-104.928-106.926-2.998-11.492-3.748-32.728-3.748-104.429v-90.188l-17.988-8.744c-35.226-16.739-67.953-56.711-78.196-96.184-5.746-21.985-5.496-254.324 0.25-276.56 6.745-25.733 19.986-48.717 39.473-67.953 29.48-29.23 63.706-43.72 103.679-43.72h20.236l-33.727-67.456c-32.478-64.701-33.727-67.953-33.727-82.939 0-30.234 19.487-49.469 50.216-49.469 13.741 0 17.988 1.249 27.731 7.245 11.492 7.245 12.991 9.743 58.21 99.932l46.218 92.687h714.508l46.218-92.687c45.22-90.189 46.72-92.687 58.209-99.932 9.743-5.996 13.993-7.245 27.735-7.245 30.725 0 50.212 19.236 50.212 49.469 0 14.986-1.249 18.237-33.725 82.939l-33.725 67.456h20.234c66.703 0 126.413 46.469 143.155 111.421 5.745 22.487 5.996 254.826 0.246 276.811-10.24 39.223-40.719 76.947-76.698 95.435l-19.487 9.743v89.688c0 73.2-0.748 92.187-3.994 104.678-13.491 51.964-55.716 94.185-107.679 107.676-22.236 5.746-344.264 5.996-366.249 0.25-15.99-3.997-34.975-13.241-50.964-23.984l-10.491-7.245-16.988 10.743c-9.247 5.996-23.736 13.741-31.98 16.988l-14.991 5.996-176.127 0.5c-161.889 0.5-177.378 0-191.119-3.997zM561.306 853.162c11.489-6.246 16.236-11.242 22.733-23.484 4.495-8.244 4.746-18.487 5.494-189.12l0.753-180.626h-290.052v36.975c0 24.983-1.249 41.721-3.747 51.465-10.243 39.223-40.722 76.947-76.947 95.435l-19.487 9.743 0.75 83.693c0.75 76.197 1.249 84.442 5.496 92.436 8.744 16.239 18.737 23.984 36.475 27.731 4.747 0.999 76.197 1.499 158.641 1.499 148.147-0.499 149.898-0.499 159.892-5.746zM1050.967 853.162c11.494-6.246 16.241-11.242 22.733-23.484 4.25-7.995 4.751-16.489 5.499-92.436l0.748-83.693-18.237-8.744c-24.233-11.742-52.214-39.223-65.203-63.956-13.742-26.732-16.737-41.471-16.737-83.942v-36.975h-290.053l0.753 180.626c0.748 170.633 0.998 180.876 5.494 189.12 8.745 16.239 18.739 23.984 36.475 27.731 4.746 0.999 76.196 1.499 158.643 1.499 148.147-0.499 149.893-0.499 159.887-5.746zM172.321 552.618c10.743-5.496 15.49-10.492 21.985-22.734 3.997-7.745 4.747-16.988 5.996-73.699 1.249-62.707 1.499-65.206 6.995-74.447 3.248-4.997 10.743-11.991 16.489-15.493l10.742-6.241h810.945l10.742 6.241c5.745 3.502 13.24 10.496 16.486 15.493 5.499 9.242 5.75 11.74 6.999 74.447 1.495 68.453 2.248 72.95 14.735 87.19 6.999 7.995 21.985 13.99 35.226 13.99 19.988 0 33.981-8.744 43.971-27.481 4.5-8.244 4.746-15.989 4.746-119.915 0-103.931-0.246-111.677-4.746-119.921-6.492-12.242-11.238-17.239-22.733-23.485l-9.994-5.243h-500.905c-484.667 0-501.156 0.251-509.65 4.746-12.241 6.492-17.238 11.244-23.484 22.733-5.246 9.743-5.246 12.242-5.246 121.17 0 108.923 0 111.421 5.246 121.164 5.996 11.242 11.242 16.239 22.235 21.985 10.493 5.496 31.728 5.246 43.22-0.5z" />
<glyph unicode="&#xe905;" glyph-name="icon6" horiz-adv-x="1626" d="M358.941 951.415c-43.518-11.435-90.847-47.012-114.352-85.765-7.624-12.388-26.365-63.529-57.495-156.6l-46.376-138.177-10.8-3.494c-45.741-15.883-88.306-52.412-108.953-93.071-20.965-41.294-20.965-42.247-20.965-211.551v-152.154l7.941-13.661c4.765-8.258 13.659-17.149 21.918-21.914 12.706-7.626 16.2-7.945 59.4-7.945h45.741l12.389-24.775c23.506-45.743 71.47-84.492 121.341-97.521 23.824-6.030 74.012-6.030 97.835 0 49.871 13.029 97.835 51.778 121.341 97.521l12.388 24.775h625.763l12.39-24.775c23.504-45.743 71.469-84.492 121.344-97.521 23.823-6.030 74.011-6.030 97.834 0 49.869 13.029 97.834 51.778 121.338 97.521l12.39 24.775h45.743c43.201 0 46.694 0.319 59.398 7.945 8.258 4.765 17.155 13.655 21.92 21.914l7.939 13.661v151.516c0 168.671-0.319 170.895-21.281 212.825-15.246 30.494-48.604 63.847-79.095 79.094-40.978 20.647-47.014 21.282-184.555 21.282h-123.88l-106.731 160.094c-114.67 171.847-120.067 178.836-161.045 200.118-40.978 21.6-31.768 20.965-316.38 20.647-213.774 0-259.833-0.953-274.445-4.765zM508.235 702.38v-127.059h-112.765c-61.941 0-112.765 0.953-112.765 2.224 0 9.529 72.106 217.271 78.459 225.847 15.882 20.965 31.447 25.094 98.788 25.73l48.282 0.317v-127.059zM870.352 825.944c10.168-2.223 20.649-7.305 27.636-13.341 6.355-5.718 45.423-61.306 87.353-123.565l75.601-113.718h-425.647v254.118h109.586c67.343 0 115.622-1.27 125.47-3.494zM1462.766 440.003c14.613-7.941 20.649-14.294 28.907-29.859 5.397-10.165 6.036-20.647 6.987-113.401 0.952-83.54 0.319-102.599-3.18-102.599-2.223 0-9.842 10.8-16.517 24.142-21.914 42.562-59.398 75.915-105.141 93.389-23.504 8.891-79.095 12.384-107.363 6.349-51.14-10.481-106.731-53.995-128.964-101.009l-11.119-22.871h-626.082l-12.388 24.142c-21.918 42.562-59.4 75.915-105.141 93.389-23.506 8.891-79.094 12.384-107.365 6.349-51.141-10.481-106.729-53.995-128.965-101.009-19.058-39.707-20.011-36.213-18.741 79.727 0.953 92.754 1.588 103.236 6.988 113.401 11.118 20.965 23.824 30.494 46.376 35.259 6.035 1.27 294.141 1.906 640.057 1.588l628.941-0.317 12.71-6.67zM345.6 184.934c21.282-10.8 32.4-29.545 32.4-54.32 0-35.256-25.094-60.35-60.353-60.35s-60.353 25.094-60.353 60.35c0 35.262 24.459 60.037 59.718 60.356 10.482 0 21.282-2.229 28.588-6.036zM1336.657 184.934c21.281-10.8 32.401-29.545 32.401-54.32 0-35.256-25.094-60.35-60.35-60.35-35.262 0-60.356 25.094-60.356 60.35 0 35.262 24.462 60.037 59.717 60.356 10.481 0 21.281-2.229 28.588-6.036z" />
<glyph unicode="&#xe906;" glyph-name="icon8" horiz-adv-x="1342" d="M396.592 793.928l-269.076-701.362h197.608l101.764 264.795c15.876 41.306 72.748 45.302 94.245 6.624l149.574-269.112 149.578 269.112c21.497 38.678 78.368 34.682 94.241-6.624l101.763-264.795h197.611l-269.078 701.362-230.276-357.715c-20.527-31.891-67.154-31.891-87.681 0l-230.275 357.715zM336.172 926.378c15.303 39.887 69.419 45.435 92.523 9.546l242.012-375.952 242.016 375.952c23.1 35.889 77.219 30.341 92.519-9.546l332.565-866.849c13.099-34.148-12.108-70.817-48.678-70.817h-308.362c-21.578 0-40.93 13.291-48.67 33.438l-74.804 194.645-141.009-253.696c-19.869-35.746-71.278-35.746-91.147 0l-141.009 253.696-74.806-194.645c-7.741-20.147-27.091-33.438-48.669-33.438h-308.362c-36.572 0-61.781 36.669-48.681 70.817l332.565 866.849z" />
<glyph unicode="&#xe907;" glyph-name="icon9" d="M712.352 875.426c-2.458 0-4.452-1.993-4.452-4.452v-222.609c0-46.718-37.875-84.591-84.591-84.591h-222.609c-2.459 0-4.452-1.993-4.452-4.452v-222.608c0-46.717-37.873-84.591-84.591-84.591h-222.609c-2.459 0-4.452-1.995-4.452-4.452v-267.13c0-22.132-17.94-40.070-40.070-40.070s-40.070 17.938-40.070 40.070v267.13c0 46.717 37.873 84.591 84.591 84.591h222.609c2.459 0 4.452 1.995 4.452 4.452v222.608c0 46.718 37.873 84.591 84.591 84.591h222.609c2.458 0 4.452 1.993 4.452 4.452v222.609c0 46.719 37.875 84.591 84.591 84.591h267.13c22.132 0 40.070-17.94 40.070-40.070s-17.938-40.070-40.070-40.070h-267.13z" />
<glyph unicode="&#xe908;" glyph-name="icon11" d="M150.292 957.488c-60.73-13.565-108.313-51.548-134.609-108.313-17.113-36.313-15.652-1.67-15.652-389.425 0-387.758-1.461-353.115 15.652-389.427 20.452-44.036 51.131-74.712 94.748-94.747 36.73-16.905 3.547-15.654 390.469-15.654 386.502 0 352.069-1.46 388.381 15.654 44.036 20.453 74.716 51.129 94.751 94.747 16.9 36.73 15.649 3.548 15.649 390.469 0 386.505 1.46 352.070-15.649 388.384-20.453 43.826-50.924 74.295-94.751 94.748-36.103 16.904-0.414 15.443-384.209 16.070-279.024 0.209-344.554-0.209-354.78-2.504zM840.032 889.244c45.497-14.191 79.093-48.835 89.947-93.496 4.381-17.113 4.381-654.886 0-672-8.976-36.73-34.433-68.452-68.034-84.311-28.173-13.566-6.678-12.733-364.174-12.733h-326.609l-16.904 5.636c-49.252 16.905-81.183 56.556-86.609 108.103-2.296 23.165-2.296 615.444 0 638.609 3.339 31.513 14.608 55.304 36.104 76.8 20.243 20.243 45.078 32.557 72.626 35.896 7.513 0.835 157.356 1.461 332.869 1.252 292.383-0.417 320.347-0.626 330.783-3.756zM171.965 787.622l-6.052-6.261 0.418-120.626c0.626-116.87 0.835-120.835 4.8-126.261 5.218-7.305 18.991-14.191 28.174-14.191s22.957 6.887 28.174 14.191c3.965 5.217 4.174 9.809 5.217 74.087l1.044 68.243 484.174-484.172h-66.573c-75.34 0-76.8-0.209-85.776-15.654-9.18-15.445-5.218-35.27 8.976-45.915 5.427-3.962 9.39-4.172 126.259-4.799l120.627-0.414 6.26 6.051 6.055 6.26-0.419 120.627c-0.628 116.87-0.837 120.836-4.799 126.259-5.427 7.306-18.993 14.194-28.592 14.194-10.436 0-24.416-8.139-29.010-16.696-3.548-6.678-3.962-12.938-3.962-74.089v-66.783l-484.176 484.175 68.244 1.044c64.278 1.044 68.869 1.252 74.087 5.218 7.304 5.218 14.191 18.991 14.191 28.174s-6.887 22.957-14.191 28.174c-5.426 3.966-9.391 4.174-126.261 4.8l-120.626 0.417-6.261-6.052z" />
<glyph unicode="&#xe909;" glyph-name="icon10" horiz-adv-x="983" d="M246.805 956.311c-48.562-14.189-86.931-61.352-86.931-106.516v-9.592h-132.495l-8.593-4.996c-5.196-2.997-10.791-8.593-13.789-13.789l-4.996-8.593v-265.591l5.596-8.991c10.592-16.589-1.998-13.992 268.188-55.357l244.806-37.573 0.598-44.962 0.401-44.966-14.389-6.795c-28.176-13.591-54.358-45.564-62.55-77.14-4.596-17.584-4.395-227.418 0.201-245.207 10.592-41.165 44.962-75.538 85.93-86.131 15.79-3.998 45.564-4.194 61.354 0 41.566 10.793 75.338 44.564 86.131 86.131 4.596 17.789 4.796 227.623 0.201 245.207-8.192 31.375-32.575 61.555-61.354 76.341l-15.585 7.795v138.088l-5.595 8.995c-10.592 16.585 1.999 13.988-268.189 55.356l-244.807 37.57-0.6 82.335-0.4 82.335h79.937v-9.193c0-35.972 27.778-78.938 62.95-97.124 27.578-14.388 12.99-13.589 267.59-13.589h229.020v-132.497l4.993-8.589c7.397-12.591 18.985-18.788 34.976-18.788 15.987 0 27.578 6.197 34.972 18.788l4.993 8.589v132.497h29.577c18.387 0 33.374 0.999 39.969 2.798l10.392 2.598v-217.827l4.997-8.593c7.393-12.591 18.985-18.788 34.972-18.788s27.578 6.197 34.972 18.788l4.997 8.593v215.229c0 239.011 0.799 225.822-13.39 253.8-9.593 19.185-30.577 40.168-49.758 49.761-28.377 14.389-5.399 13.389-337.736 13.19-279.179 0-300.362-0.4-311.553-3.597zM856.326 874.975c9.191-4.996 12.988-8.993 18.182-18.785 3.4-6.195 3.797-11.991 3.797-55.956s-0.397-49.761-3.797-55.956c-5.194-9.792-8.991-13.789-18.182-18.785l-7.995-4.197h-577.545l-7.993 4.197c-9.193 4.996-12.99 8.993-18.186 18.785-3.397 6.195-3.797 11.991-3.797 55.956s0.4 49.761 3.797 55.956c6.994 13.19 14.988 19.185 29.177 22.183 3.797 0.799 134.694 1.199 290.772 0.999l283.775-0.2 7.995-4.197zM577.143 274.85c8.397-4.399 12.39-8.393 17.588-18.186 3.596-6.595 3.797-13.189 3.797-107.913 0-99.324 0-101.122-4.198-108.917-7.594-14.189-18.985-20.984-34.771-20.984s-27.177 6.795-34.771 20.984c-4.198 7.795-4.198 9.593-4.198 108.917 0 99.32 0 101.118 4.198 108.913 4.796 8.991 8.991 12.988 17.785 17.584 8.393 4.399 25.379 4.198 34.57-0.397z" />
<glyph unicode="&#xe90a;" glyph-name="icon13" d="M565.258 275.948c-2.75 4.404-7.57 7.291-13.064 7.291-2.988 0-5.777-0.854-8.136-2.331l0.064 0.038-100.065-61.737c-32.43-20.029-79.77-9.523-99.297 22.016l-136.028 220.498c-6.416 10.177-10.223 22.557-10.223 35.827 0 5.626 0.684 11.093 1.974 16.321l-0.097-0.466c4.327 18.066 15.407 33.003 30.359 42.298l0.289 0.167 103.864 64.133c4.402 2.752 7.287 7.573 7.287 13.067 0 2.987-0.852 5.774-2.327 8.133l0.038-0.065-86.098 139.51c-2.749 4.408-7.571 7.298-13.068 7.298-2.986 0-5.774-0.853-8.131-2.328l0.064 0.038-103.803-64.041c-115.446-71.25-111.34-258.427 10.015-455.188 55.685-90.235 125.737-161.987 197.263-202.025 41.933-23.48 83.22-35.267 121.672-35.267 32.184 0 62.372 8.274 89.242 24.863l99.318 61.317c4.402 2.752 7.287 7.573 7.287 13.067 0 2.987-0.852 5.774-2.327 8.133l0.038-0.065-86.108 139.5zM530.924 80.118c-62.874-38.83-132.475-15.401-179.773 11.080-67.041 37.53-133.14 105.492-186.122 191.355-111.852 181.361-120.095 351.16-20.029 412.918l90.726 55.982 69.97-113.367-90.798-56.064c-22.082-13.709-38.133-35.354-44.254-60.861l-0.136-0.671c-1.727-6.897-2.718-14.814-2.718-22.963 0-19.232 5.52-37.174 15.061-52.33l-0.239 0.408 136.038-220.508c28.477-46.029 94.638-60.989 141.558-32.010l86.989 53.668 69.98-113.367-86.252-53.268zM921.682 866.877h-416.522c-31.611 0-57.334-25.754-57.334-57.416v-250.327c0.029-31.659 25.677-57.318 57.329-57.364h48.952v-101.857c0.005-8.479 6.88-15.352 15.36-15.352 3.98 0 7.606 1.513 10.334 3.996l-0.012-0.011 124.662 113.234h217.221c31.657 0.047 57.305 25.705 57.334 57.362v250.33c0.010 31.642-25.713 57.405-57.324 57.405zM948.296 559.124c-0.006-14.702-11.914-26.621-26.611-26.644h-223.162c-3.82 0-7.496-1.423-10.322-3.994l-103.373-93.891v82.524c0 8.483-6.877 15.36-15.36 15.36v0h-64.307c-14.7 0.023-26.608 11.942-26.614 26.644v250.328c0 0.003 0 0.007 0 0.010 0 14.713 11.907 26.645 26.61 26.685h416.526c14.707-0.041 26.614-11.973 26.614-26.685 0-0.004 0-0.007 0-0.011v0.001-250.327zM592.722 736.973c-0.017 0-0.037 0-0.057 0-10.85 0-20.664-4.434-27.73-11.588l-0.004-0.004c-6.998-6.996-11.326-16.662-11.326-27.338 0-0.098 0-0.196 0.001-0.294v0.015c0.102-21.484 17.725-38.932 39.352-38.932h0.092c21.596 0.113 39.117 17.705 39.066 39.209 0 0.003 0 0.006 0 0.010 0 10.759-4.403 20.491-11.505 27.49l-0.005 0.005c-7.455 7.414-17.531 11.745-27.884 11.428zM592.937 689.562c-0.061-0.002-0.133-0.003-0.205-0.003-4.62 0-8.369 3.732-8.397 8.345v0.003c0 0.015 0 0.032 0 0.050 0 2.257 0.916 4.299 2.396 5.777v0c1.618 1.628 3.574 2.365 6.144 2.519 2.314 0 4.475-0.881 6.103-2.499 1.495-1.472 2.425-3.514 2.437-5.773v-0.002c-0.046-4.652-3.822-8.406-8.478-8.417h-0.001zM708.547 736.973c-0.017 0-0.038 0-0.058 0-10.864 0-20.692-4.437-27.77-11.598l-0.004-0.004c-6.992-6.989-11.316-16.645-11.316-27.311 0-0.1 0-0.201 0.001-0.301v0.015c0.092-21.484 17.715-38.932 39.352-38.932h0.092c21.637 0.113 39.168 17.715 39.066 39.25-0.011 10.751-4.411 20.472-11.505 27.47l-0.004 0.004c-7.164 7.051-17 11.405-27.852 11.407h-0.001zM717.179 697.948c-0.041-4.64-3.812-8.387-8.458-8.387 0 0 0 0 0 0h-0.010c-0.028 0-0.061-0.001-0.094-0.001-4.64 0-8.412 3.718-8.498 8.338v0.008c0 0.017 0 0.037 0 0.056 0 2.251 0.916 4.289 2.396 5.759v0c1.618 1.628 4.291 2.468 6.185 2.529 2.294 0 4.434-0.881 6.052-2.488 1.5-1.472 2.432-3.52 2.437-5.785v-0.001l-0.010-0.031zM824.33 736.973c-0.017 0-0.036 0-0.056 0-10.863 0-20.691-4.433-27.773-11.588l-0.003-0.003c-6.998-7.004-11.326-16.676-11.326-27.359 0-0.087 0-0.174 0.001-0.261v0.013c0.102-21.484 17.725-38.932 39.363-38.932h0.092c21.617 0.113 39.137 17.705 39.066 39.209-0.003 10.767-4.409 20.505-11.515 27.51l-0.005 0.004c-7.455 7.404-17.039 11.325-27.843 11.407zM832.963 697.948c-0.035-4.639-3.804-8.387-8.448-8.387-0.004 0-0.007 0-0.011 0h-0.019c-0.028 0-0.061-0.001-0.094-0.001-4.64 0-8.412 3.718-8.498 8.338v0.008c0 0.010 0 0.021 0 0.033 0 2.262 0.916 4.31 2.396 5.794v0c1.618 1.638 3.389 2.232 6.185 2.529 0.013 0 0.028 0 0.043 0 2.347 0 4.471-0.951 6.009-2.488v0c1.5-1.472 2.432-3.52 2.437-5.785v-0.042z" />
<glyph unicode="&#xe90b;" glyph-name="icon12" horiz-adv-x="866" d="M360.236 956.803c-157.638-21.392-289.315-130.015-339.162-280.177-26.792-80.585-28.038-167.194-3.738-251.721 34.477-119.426 115.062-246.532 229.708-362.012 54.623-55.036 106.546-97.197 142.061-115.267 16.202-8.306 20.144-9.555 28.455-8.932 27.624 2.702 94.291 52.338 163.868 122.124 133.963 134.376 219.947 281.423 244.039 417.461 7.684 43.201 6.231 104.886-3.324 151.201-31.776 155.769-152.237 280.592-307.176 319.015-45.899 11.215-108.205 14.746-154.73 8.308zM448.091 892.626c48.392-3.323 109.454-24.092 153.899-52.338 40.499-25.754 83.078-68.539 108.832-109.246 12.67-19.731 27.416-50.885 35.308-74.146 12.461-36.554 16.199-58.569 17.443-101.769 0.831-33.233 0.417-41.952-3.529-65.422-17.861-105.507-83.287-224.307-188.377-342.071-44.241-49.636-111.325-111.325-145.18-133.963l-11.213-7.475-11.217 7.475c-33.853 22.638-100.938 84.326-145.176 133.963-105.092 117.764-170.515 236.564-188.377 342.071-3.946 23.261-4.361 32.398-3.738 65.422 0.831 32.192 1.869 42.369 6.646 63.346 16.2 69.992 49.015 128.354 100.315 177.577 12.462 12.046 30.739 27.623 40.708 34.685 36.97 25.962 86.4 47.354 131.469 56.908 21.6 4.361 60.024 7.892 75.601 6.854 5.191-0.415 17.030-1.246 26.585-1.869zM376.866 766.15c-68.954-13.292-124.615-53.169-158.262-112.985-23.261-41.331-32.608-97.2-24.507-144.97 17.446-100.939 96.992-175.498 198.762-186.092 90.761-9.555 180.278 38.632 221.608 119.84 38.628 75.39 31.984 165.946-17.239 234.692-12.048 16.823-38.424 42.161-56.493 54.207-38.006 25.338-72.275 36.139-119.213 37.385-19.94 0.416-35.102-0.208-44.655-2.077zM460.15 696.781c25.962-8.308 46.316-20.769 66.462-40.915 16.408-16.408 20.145-21.392 29.286-40.5 12.67-25.962 17.239-44.654 17.239-71.239 0-86.193-71.239-157.223-157.846-157.223-86.61 0-157.848 71.030-157.848 157.223 0 26.378 4.569 45.278 17.031 71.239 9.138 19.108 12.669 23.885 29.492 40.5 24.923 24.923 46.108 36.139 85.361 45.485 10.387 2.492 58.361-0.623 70.822-4.569z" />
<glyph unicode="&#xe90c;" glyph-name="icon17" d="M754.432 444.273c0 135.69-110.397 246.088-246.098 246.088-135.721 0-246.139-110.397-246.139-246.088 0-135.7 110.418-246.098 246.139-246.098 135.7 0 246.098 110.397 246.098 246.098zM296.53 444.273c0 116.756 95.017 211.753 211.804 211.753 116.767 0 211.763-94.986 211.763-211.753s-94.996-211.763-211.763-211.763c-116.787 0-211.804 94.996-211.804 211.763zM508.334 726.907c9.482 0 17.162 7.68 17.162 17.162v128.584c0 9.478-7.684 17.162-17.162 17.162s-17.162-7.684-17.162-17.162v0-128.584c0-9.482 7.68-17.162 17.162-17.162zM616.182 707.041c1.832-0.73 3.956-1.153 6.178-1.153 7.262 0 13.469 4.518 15.962 10.897l0.040 0.117 46.152 120.033c0.585 1.656 0.923 3.567 0.923 5.556 0 9.49-7.693 17.183-17.183 17.183-7.042 0-13.094-4.236-15.748-10.299l-0.043-0.111-46.152-120.033c-3.389-8.858 1.024-18.79 9.871-22.19zM732.068 643.471c4.772 0 9.523 1.976 12.913 5.857l84.726 96.645c2.643 3.005 4.256 6.972 4.256 11.315 0 9.482-7.687 17.169-17.169 17.169-5.138 0-9.75-2.257-12.896-5.835l-0.016-0.019-84.726-96.645c-2.65-3.006-4.267-6.977-4.267-11.325 0-9.478 7.684-17.162 17.162-17.162 0.006 0 0.013 0 0.019 0h-0.001zM777.503 562.545c2.4-6.78 8.756-11.549 16.226-11.549 2.008 0 3.935 0.345 5.726 0.978l-0.12-0.037 121.62 42.117c6.781 2.396 11.552 8.751 11.552 16.22 0 9.479-7.684 17.163-17.163 17.163-2.010 0-3.939-0.345-5.732-0.98l0.12 0.037-121.62-42.107c-6.783-2.395-11.555-8.75-11.555-16.221 0-2.014 0.347-3.946 0.984-5.741l-0.037 0.12zM945.459 451.226h-128.666c-9.478 0-17.162-7.684-17.162-17.162s7.684-17.162 17.162-17.162h128.666c9.478 0 17.162 7.684 17.162 17.162s-7.684 17.162-17.162 17.162v0zM508.334 159.181c-9.482 0-17.162-7.68-17.162-17.162v-128.594c0-9.478 7.684-17.162 17.162-17.162s17.162 7.684 17.162 17.162v0 128.594c0 9.472-7.68 17.162-17.162 17.162zM638.372 169.185c-2.612 6.359-8.757 10.755-15.928 10.755-9.484 0-17.172-7.688-17.172-17.172 0-2.122 0.385-4.154 1.089-6.030l-0.039 0.118 46.152-120.033c2.547-6.49 8.757-11.001 16.020-11.001 9.48 0 17.166 7.685 17.166 17.166 0 2.217-0.42 4.336-1.185 6.281l0.040-0.116-46.141 120.033zM744.98 236.759c-3.151 3.442-7.665 5.592-12.681 5.592-9.484 0-17.172-7.688-17.172-17.172 0-4.221 1.523-8.086 4.049-11.076l-0.021 0.025 84.726-96.666c3.158-3.6 7.768-5.86 12.906-5.86 4.344 0 8.31 1.616 11.331 4.279l-0.019-0.016c7.127 6.246 7.844 17.091 1.597 24.228l-84.716 96.666zM920.965 292.024l-121.62 42.138c-1.555 0.512-3.345 0.807-5.203 0.807-9.484 0-17.172-7.688-17.172-17.172 0-7.314 4.572-13.56 11.015-16.035l0.118-0.040 121.62-42.138c1.678-0.602 3.614-0.951 5.631-0.951 7.466 0 13.818 4.77 16.174 11.429l0.037 0.12c0.601 1.676 0.948 3.61 0.948 5.625 0 7.467-4.768 13.82-11.426 16.18l-0.12 0.037zM390.779 716.892c2.697-6.174 8.75-10.41 15.791-10.41 9.49 0 17.183 7.693 17.183 17.183 0 1.989-0.338 3.899-0.96 5.676l0.037-0.12-46.162 120.013c-2.697 6.174-8.75 10.41-15.791 10.41-9.49 0-17.183-7.693-17.183-17.183 0-1.989 0.338-3.899 0.96-5.676l-0.037 0.12 46.162-120.013zM284.17 649.308c3.158-3.6 7.768-5.86 12.906-5.86 4.344 0 8.31 1.616 11.331 4.279l-0.019-0.016c7.127 6.246 7.844 17.091 1.597 24.228l-84.736 96.666c-3.151 3.442-7.665 5.592-12.681 5.592-9.484 0-17.172-7.688-17.172-17.172 0-4.221 1.523-8.086 4.049-11.076l-0.021 0.025 84.746-96.666zM108.186 594.022l121.62-42.097c1.569-0.522 3.375-0.823 5.251-0.823 9.484 0 17.172 7.688 17.172 17.172 0 7.34-4.605 13.604-11.083 16.061l-0.118 0.039-121.62 42.097c-1.668 0.593-3.592 0.936-5.596 0.936-7.474 0-13.834-4.766-16.208-11.424l-0.037-0.12c-0.594-1.669-0.937-3.594-0.937-5.599 0-7.476 4.772-13.838 11.436-16.205l0.12-0.037zM229.509 434.033c0 9.482-7.69 17.162-17.172 17.162h-128.666c-9.478 0-17.162-7.684-17.162-17.162s7.684-17.162 17.162-17.162h128.666c9.482 0 17.172 7.69 17.172 17.162zM412.959 179.016c-1.828 0.724-3.947 1.144-6.163 1.144-7.266 0-13.478-4.513-15.986-10.889l-0.040-0.117-46.162-120.044c-0.722-1.826-1.14-3.941-1.14-6.154 0-9.48 7.677-17.167 17.154-17.183h0.002c6.902 0 13.404 4.188 16.026 11.008l46.162 120.044c0.729 1.833 1.151 3.956 1.151 6.178 0 7.261-4.512 13.469-10.886 15.971l-0.116 0.040zM284.17 236.718l-84.736-96.635c-2.499-2.963-4.018-6.823-4.018-11.039 0-9.484 7.688-17.172 17.172-17.172 5.005 0 9.51 2.141 12.649 5.558l0.011 0.012 84.736 96.635c2.499 2.963 4.018 6.823 4.018 11.039 0 9.484-7.688 17.172-17.172 17.172-5.005 0-9.51-2.141-12.649-5.558l-0.011-0.012zM251.648 323.523c-2.391 6.784-8.745 11.558-16.214 11.558-2.016 0-3.951-0.348-5.748-0.987l0.12 0.037-121.62-42.097c-6.596-2.497-11.201-8.761-11.201-16.101 0-9.484 7.688-17.172 17.172-17.172 1.876 0 3.683 0.301 5.373 0.857l-0.121-0.035 121.62 42.097c6.786 2.396 11.562 8.756 11.562 16.23 0 2.010-0.345 3.939-0.98 5.732l0.037-0.12z" />
<glyph unicode="&#xe90d;" glyph-name="icon16" d="M512 647.68c-104.458 0-189.44-84.982-189.44-189.44s84.982-189.44 189.44-189.44 189.44 84.982 189.44 189.44-84.982 189.44-189.44 189.44zM512 299.52c-87.521 0-158.72 71.199-158.72 158.72s71.199 158.72 158.72 158.72 158.72-71.199 158.72-158.72-71.199-158.72-158.72-158.72zM975.104 535.030l-122.552 18.545c-7.593 25.26-16.818 47.062-28.055 67.607l0.909-1.815 73.482 99.666c1.872 2.517 2.997 5.687 2.997 9.119 0 4.24-1.717 8.079-4.493 10.859v0l-94.372 94.362c-2.781 2.779-6.622 4.498-10.865 4.498-3.43 0-6.597-1.123-9.154-3.022l0.041 0.029-99.348-73.236c-18.863 10.496-40.801 19.858-63.751 26.905l-2.461 0.65-18.442 121.897c-1.155 7.439-7.513 13.065-15.186 13.066h-133.448c-7.673-0.001-14.031-5.628-15.175-12.98l-0.011-0.086-18.442-121.897c-25.414-7.704-47.351-17.065-68.006-28.464l1.794 0.908-99.348 73.236c-2.516 1.872-5.684 2.996-9.114 2.996-4.243 0-8.084-1.72-10.864-4.502l-94.362-94.362c-2.779-2.781-4.498-6.622-4.498-10.865 0-3.43 1.123-6.597 3.022-9.154l-0.029 0.041 73.482-99.666c-10.328-18.73-19.553-40.532-26.5-63.328l-0.646-2.464-122.552-18.545c-7.439-1.155-13.065-7.513-13.066-15.186v0-133.448c0-7.67 5.622-14.027 12.969-15.175l0.087-0.011 123.156-18.637c7.653-24.953 16.855-46.459 28.016-66.737l-0.91 1.805-74.045-100.434c-1.87-2.516-2.993-5.683-2.993-9.113 0-4.243 1.719-8.084 4.499-10.865l94.362-94.362c2.78-2.781 6.621-4.502 10.864-4.502 3.431 0 6.599 1.125 9.155 3.026l-0.041-0.029 100.762 74.281c18.344-10.096 39.716-19.163 62.048-26.042l2.464-0.653 18.729-123.802c1.155-7.439 7.513-13.065 15.186-13.066h133.448c7.673 0.001 14.031 5.628 15.175 12.98l0.011 0.086 18.729 123.802c24.796 7.533 46.169 16.6 66.332 27.605l-1.82-0.91 100.762-74.281c6.113-4.506 14.602-3.86 19.978 1.505l94.372 94.362c2.778 2.779 4.496 6.618 4.496 10.858 0 3.433-1.126 6.603-3.030 9.161l0.029-0.041-74.045 100.434c10.262 18.477 19.465 39.984 26.447 62.47l0.659 2.462 123.156 18.637c7.434 1.159 13.056 7.516 13.056 15.186v0 133.448c0 0.003 0 0.007 0 0.010 0 7.664-5.617 14.017-12.959 15.165l-0.087 0.011zM957.44 399.606l-119.839-18.135c-6.066-0.945-10.905-5.323-12.508-11.053l-0.026-0.108c-7.979-28.937-18.829-54.222-32.584-77.591l0.81 1.487c-3.072-5.294-2.714-11.899 0.922-16.824l72.090-97.782-75.684-75.684-98.079 72.305c-2.514 1.871-5.681 2.996-9.11 2.996-2.817 0-5.456-0.759-7.725-2.083l0.073 0.039c-21.772-12.775-46.936-23.479-73.499-30.81l-2.226-0.524c-5.861-1.612-10.26-6.461-11.192-12.458l-0.011-0.086-18.227-120.515h-107.028l-18.227 120.515c-0.947 6.080-5.345 10.927-11.094 12.518l-0.108 0.026c-28.789 7.856-53.953 18.56-77.229 32.146l1.504-0.811c-2.196 1.281-4.835 2.038-7.65 2.038-3.429 0-6.596-1.122-9.154-3.019l0.041 0.029-98.079-72.305-75.684 75.684 72.090 97.782c1.872 2.516 2.997 5.684 2.997 9.115 0 2.84-0.771 5.5-2.114 7.782l0.039-0.072c-12.948 21.882-23.798 47.167-31.243 73.871l-0.531 2.233c-1.624 5.841-6.465 10.222-12.448 11.151l-0.086 0.011-119.839 18.135v107.028l119.296 18.043c6.099 0.946 10.958 5.369 12.529 11.146l0.025 0.108c7.882 29.237 18.729 54.815 32.545 78.445l-0.811-1.501c1.286 2.198 2.045 4.839 2.045 7.658 0 3.431-1.125 6.6-3.026 9.157l0.029-0.041-71.496 96.983 75.684 75.684 96.696-71.281c2.515-1.87 5.682-2.994 9.111-2.994 2.845 0 5.51 0.774 7.795 2.122l-0.072-0.039c22.236 13.183 47.931 24.176 75.084 31.651l2.228 0.523c5.865 1.609 10.269 6.459 11.202 12.458l0.011 0.086 17.94 118.61h107.028l17.94-118.61c0.944-6.085 5.348-10.935 11.105-12.519l0.108-0.025c29.381-8 55.076-18.993 78.793-32.982l-1.481 0.808c2.213-1.31 4.878-2.085 7.724-2.085 3.429 0 6.596 1.125 9.152 3.025l-0.041-0.029 96.696 71.281 75.684-75.684-71.496-96.983c-1.872-2.516-2.997-5.684-2.997-9.116 0-2.819 0.759-5.46 2.084-7.731l-0.039 0.073c13-22.128 23.846-47.705 31.216-74.717l0.518-2.227c1.599-5.883 6.456-10.305 12.468-11.243l0.087-0.011 119.296-18.043v-107.028z" />
<glyph unicode="&#xe90f;" glyph-name="icon4" horiz-adv-x="721" d="M302.193 957.715c-151.295-24.653-269.985-139.764-298.614-289.866-2.783-14.116-3.579-28.827-3.579-65.011 0-41.155 0.596-49.502 4.573-69.387 18.092-89.463 64.216-162.027 139.764-220.080 24.255-18.887 36.382-34.596 44.931-58.451 4.573-12.921 5.368-18.887 6.163-44.138l0.795-29.423h-25.448c-23.46 0-25.845-0.398-33.798-4.968-12.525-7.358-18.688-18.887-18.688-34.793s6.163-27.436 18.688-34.793c7.952-4.57 10.338-4.968 33.4-4.968h24.851l1.193-29.226c0.795-16.304 2.585-34.592 4.374-40.755 10.537-40.956 45.13-75.351 85.688-85.887 17.694-4.574 122.867-4.574 140.56 0 40.956 10.536 75.15 44.734 85.686 85.489 2.188 8.549 3.182 21.273 3.182 41.351v29.029h26.245c24.254 0 26.639 0.398 34.592 4.968 12.523 7.358 18.686 18.887 18.686 34.793s-6.163 27.436-18.686 34.793c-7.953 4.57-10.339 4.968-34.99 4.968h-26.442l1.392 23.26c3.178 54.079 17.294 81.711 56.661 111.931 69.583 52.884 116.501 127.64 135.786 216.705 3.978 18.489 4.373 26.442 4.373 69.584s-0.394 51.094-4.373 69.584c-31.41 144.535-135.987 250.303-278.733 281.715-19.684 4.374-28.827 5.169-66.601 5.766-31.81 0.398-48.709-0.199-61.631-2.187zM383.905 878.39c21.47-1.392 56.859-9.941 80.119-19.881 85.887-36.184 150.699-118.094 166.009-209.746 3.975-24.056 4.172-67.794 0.197-90.858-6.758-38.567-24.853-83.103-46.721-113.918-14.909-20.874-38.965-45.526-64.812-66.006-54.871-43.539-77.536-88.47-82.705-163.423l-2.188-33.2h-156.066l-0.994 34.198c-0.597 26.241-1.789 37.971-4.97 49.702-12.525 46.122-35.786 81.313-72.367 109.147-34.792 26.639-53.48 45.925-73.56 76.341-21.869 33.003-35.786 68.593-42.347 107.956-5.169 30.418-3.38 81.114 3.777 109.544 20.080 79.723 74.157 146.126 149.307 183.701 18.688 9.344 47.118 19.086 67.596 23.261 12.525 2.585 48.311 5.567 56.661 4.771 2.783-0.397 13.122-0.994 23.064-1.59zM434.404 76.584c0-23.26-0.398-25.646-4.972-33.599-3.182-5.367-8.75-10.733-14.514-14.116l-9.341-5.564h-48.711c-45.925 0-49.106 0.197-56.661 4.172-17.098 9.148-21.273 18.69-22.466 50.1l-0.994 24.257h157.659v-25.251zM334.451 795.875c-8.946-5.765-9.94-7.555-52.884-93.441-43.142-85.886-43.938-87.874-43.938-99.803 0-15.706 6.362-27.237 18.688-34.591l8.549-4.972h105.966l-26.839-53.878c-25.448-50.696-27.038-54.473-27.038-65.608-0.199-23.855 15.905-39.564 40.16-39.564 10.934 0 14.314 0.994 22.266 5.966 8.947 5.765 9.94 7.358 53.085 93.442 43.141 86.283 43.736 87.675 43.736 100.001 0 16.302-7.157 28.629-20.279 34.991-8.347 3.976-11.727 4.175-60.833 4.175h-52.090l26.839 53.679c25.846 51.492 26.84 54.076 26.84 66.005 0 24.056-15.508 39.364-39.961 39.364-10.934 0-14.314-0.994-22.267-5.765z" />
<glyph unicode="&#xe910;" glyph-name="favicon" d="M131.518 583.873c-22.786-23.41-22.862-60.687-0.171-84.191l260.465-269.791c13.607-14.092 21.212-32.919 21.212-52.507v-152.067c0-33.403 27.076-60.479 60.479-60.479h92.973c33.4 0 60.479 27.076 60.479 60.479v191.861c0 45.788-17.315 89.883-48.465 123.443l-290.492 312.919c-23.544 25.361-63.528 25.833-87.664 1.036l-68.816-70.704zM390.403 849.855c-22.468-23.082-22.901-59.723-0.985-83.33l368.541-396.996c12.981-13.981 20.194-32.355 20.194-51.435v-292.777c0-33.403 27.079-60.479 60.479-60.479h100.232c33.403 0 60.479 27.076 60.479 60.479v405.387c0 15.758-6.147 30.892-17.137 42.186l-436.016 447.969c-23.745 24.395-62.934 24.395-86.679 0l-69.108-71.003zM201.346-35.162c33.402 0 60.479 27.076 60.479 60.479v48.236c0 47.017-18.25 92.196-50.906 126.018l-100.573 104.177c-37.781 39.132-103.99 12.387-103.99-42.008v-236.424c0-33.403 27.078-60.479 60.479-60.479h134.51z" />
<glyph unicode="&#xe911;" d="M243.81 960h536.381c134.652 0 243.81-109.157 243.81-243.81v-536.381c0-134.652-109.157-243.81-243.81-243.81h-536.381c-134.652 0-243.81 109.157-243.81 243.81v536.381c0 134.652 109.157 243.81 243.81 243.81z" />
<glyph unicode="&#xe912;" glyph-name="play" d="M981.188 799.892c-143.632 20.65-302.332 32.108-469.186 32.108-166.86 0-325.556-11.458-469.194-32.108-27.53-107.726-42.808-226.75-42.808-351.892 0-125.14 15.278-244.166 42.808-351.89 143.638-20.652 302.336-32.11 469.194-32.11 166.854 0 325.552 11.458 469.186 32.11 27.532 107.724 42.812 226.75 42.812 351.89 0 125.142-15.28 244.166-42.812 351.892zM384.002 256v384l320-192-320-192z" />
<glyph unicode="&#xe913;" d="M458.698 691.102c-6.766-0.619-19.083-2.445-27.368-4.059-8.287-1.612-20.58-4.742-27.319-6.953-6.736-2.214-16.428-5.737-21.536-7.831s-13.463-5.998-18.571-8.672c-5.108-2.675-14.104-8.024-19.99-11.883-5.888-3.862-15.258-10.808-20.821-15.438s-14.563-13.314-20-19.298c-5.437-5.986-13.444-16.009-17.793-22.277s-10.789-16.94-14.312-23.715c-3.523-6.775-7.792-15.843-9.484-20.148-1.694-4.306-4.118-11.042-5.388-14.97-1.268-3.928-3.703-12.766-5.415-19.641-1.707-6.873-3.957-18.82-5.001-26.546-1.041-7.726-1.892-20.687-1.892-28.806 0-8.116 0.834-20.863 1.851-28.328 1.019-7.465 3.182-18.608 4.81-24.761 1.626-6.154 5.042-16.545 7.59-23.091 2.545-6.549 6.797-16.057 9.445-21.133 2.645-5.076 7.105-12.829 9.906-17.23 2.801-4.398 8.19-12.030 11.973-16.957s12.768-14.782 19.963-21.899c7.195-7.117 17.537-16.289 22.986-20.382 5.447-4.094 14.758-10.476 20.692-14.187 5.932-3.708 17.632-9.918 26-13.797s21.897-9.187 30.069-11.793c8.172-2.606 20.429-5.808 27.238-7.114 6.81-1.309 17.791-2.943 24.403-3.635 6.612-0.695 17.081-1.26 23.264-1.26 6.181 0 16.65 0.568 23.262 1.26 6.612 0.695 17.235 2.294 23.606 3.557s18.188 4.42 26.261 7.014c8.075 2.597 20.824 7.68 28.338 11.301 7.514 3.618 17.31 8.797 21.775 11.505 4.462 2.711 8.331 4.718 8.597 4.464 0.266-0.256 8.621-26.702 18.571-58.768 9.952-32.066 19.497-62.44 21.216-67.496 2.199-6.466 4.218-10.074 6.807-12.169 2.024-1.638 5.883-3.547 8.575-4.245 3.421-0.885 6.341-0.895 9.687-0.027 2.636 0.683 6.288 2.37 8.114 3.752 2.128 1.609 8.875 13.178 18.739 32.137 8.477 16.291 15.838 29.623 16.355 29.623s9.011-7.804 18.876-17.342c9.865-9.538 19.532-18.154 21.48-19.146 1.948-0.99 5.925-1.802 8.838-1.802 2.911 0 6.89 0.809 8.838 1.797s17.566 15.362 34.711 31.941c26.731 25.854 31.288 30.779 32.017 34.606 0.468 2.458 0.466 6.473-0.010 8.928-0.717 3.723-4.169 7.67-20.799 23.781-10.967 10.623-19.695 19.546-19.397 19.829 0.3 0.28 14.175 7.010 30.835 14.953 16.657 7.941 31.359 15.355 32.67 16.477 1.309 1.119 3.14 3.76 4.067 5.866 0.929 2.107 1.687 5.866 1.687 8.35 0 2.487-1.031 6.388-2.292 8.67-1.26 2.28-4.052 5.3-6.2 6.71-2.148 1.412-7.66 3.645-12.254 4.964-4.591 1.319-34.814 9.974-67.16 19.237-32.344 9.26-64.285 18.444-70.98 20.412-10.164 2.987-12.037 3.906-11.347 5.578 0.453 1.102 2.448 7.936 4.432 15.184 1.985 7.251 4.459 19.003 5.495 26.114 1.041 7.112 1.914 19.927 1.943 28.479 0.027 8.553-0.566 20.295-1.321 26.095s-2.219 14.907-3.252 20.236c-1.034 5.33-3.55 15.314-5.591 22.189-2.043 6.873-5.686 17.318-8.099 23.211-2.411 5.893-7.18 15.801-10.598 22.021-3.416 6.22-9.011 15.326-12.429 20.236s-9.76 13.022-14.090 18.027c-4.33 5.005-12.468 13.263-18.088 18.354s-14.131 12.042-18.915 15.45c-4.784 3.406-12.444 8.399-17.020 11.091-4.576 2.694-12.912 7.117-18.522 9.828-5.61 2.714-14.953 6.697-20.763 8.853-5.808 2.158-16.957 5.544-24.778 7.529-7.819 1.985-20.068 4.423-27.219 5.42-7.148 0.997-20.799 2.058-30.332 2.355-9.533 0.3-22.869 0.037-29.635-0.583zM523.001 649.548c6.81-1.392 18.027-4.34 24.934-6.551 6.902-2.211 18.325-6.8 25.381-10.199 7.053-3.399 17.564-9.299 23.352-13.112s14.519-10.445 19.402-14.741c4.884-4.293 12.471-11.954 16.859-17.023 4.389-5.066 10.491-12.963 13.558-17.547 3.070-4.581 7.797-12.617 10.503-17.854s6.363-13.273 8.124-17.854c1.763-4.584 4.342-12.11 5.737-16.725s3.738-14.794 5.21-22.616c2.028-10.798 2.675-18.959 2.682-33.865 0.010-15.233-0.566-22.35-2.555-31.703-1.414-6.632-3.75-15.874-5.193-20.534s-3.272-8.472-4.064-8.472c-0.792 0-15.472 4.018-32.624 8.928-18.491 5.293-33.431 8.926-36.706 8.926-3.686 0-6.88-0.887-9.613-2.677-2.25-1.473-5.161-4.064-6.463-5.759-1.307-1.692-2.667-5.191-3.028-7.773-0.514-3.694 2.038-13.356 11.998-45.397 6.958-22.387 12.366-41.418 12.017-42.291-0.349-0.875-5.288-4.567-10.976-8.204-5.691-3.638-15.411-9.060-21.602-12.049-6.19-2.987-16.972-7.344-23.959-9.682-6.988-2.341-18.359-5.435-25.268-6.875-10.65-2.224-16.525-2.633-38.563-2.677-20.548-0.041-28.209 0.4-36.525 2.102-5.788 1.185-16.094 3.784-22.903 5.776s-18.108 6.215-25.108 9.384c-6.997 3.17-18.139 9.194-24.761 13.385-6.619 4.191-16.852 11.691-22.74 16.667-5.886 4.974-14.565 13.551-19.288 19.061-4.723 5.508-11.132 13.707-14.241 18.217-3.111 4.513-8.489 13.636-11.952 20.275-3.465 6.641-8.014 16.998-10.111 23.018-2.097 6.017-4.871 15.599-6.164 21.292-1.292 5.691-2.935 16.345-3.657 23.674-0.926 9.457-0.917 17.398 0.039 27.343 0.736 7.709 2.462 19.624 3.83 26.48 1.37 6.853 4.445 18.103 6.836 24.995 2.392 6.895 6.754 17.357 9.694 23.25 2.94 5.89 8.255 14.997 11.813 20.234 3.555 5.239 10.152 13.736 14.66 18.885s12.568 13.019 17.915 17.493c5.344 4.471 14.258 11.032 19.81 14.582 5.549 3.547 14.117 8.399 19.039 10.779 4.925 2.382 13.049 5.895 18.054 7.807 5.008 1.911 14.351 4.837 20.765 6.5 6.412 1.665 16.952 3.83 23.423 4.815 8.56 1.304 18.332 1.663 35.903 1.317 18.43-0.363 27.073-1.075 36.525-3.006zM476.314 587.688c-1.846-0.556-4.979-2.124-6.966-3.484s-4.518-4.306-5.625-6.544c-1.156-2.341-2.009-7.088-2.009-11.164v-7.095l-8.219-2.592c-4.52-1.429-11.208-4.501-14.86-6.832s-8.745-6.539-11.323-9.353c-2.575-2.816-6.178-7.758-8.004-10.984-1.829-3.228-4.176-9.021-5.22-12.873s-1.899-10.545-1.899-14.872c0-4.325 0.89-10.774 1.975-14.331 1.087-3.555 3.625-9.46 5.642-13.122 2.014-3.66 6.281-9.118 9.477-12.13s9.067-7.348 13.046-9.64c3.979-2.292 11.054-5.003 15.721-6.025 5.225-1.141 14.39-1.855 23.845-1.855 13.887 0 15.75-0.256 19.451-2.677 2.25-1.475 5.259-4.191 6.683-6.039 1.872-2.428 2.592-5.132 2.592-9.733 0-4.579-0.719-7.297-2.555-9.66-1.402-1.809-4.089-4.391-5.966-5.742-3.216-2.314-5.508-2.489-39.543-3.050-31.183-0.514-36.664-0.878-40.053-2.66-2.16-1.136-5.222-3.813-6.81-5.951-2.25-3.033-2.884-5.456-2.884-11.030 0-5.632 0.629-7.987 2.974-11.149 1.634-2.204 5.257-5.003 8.046-6.222 4.113-1.797 8.163-2.221 21.341-2.243l16.265-0.024 0.475-8.063c0.356-6.093 1.195-9.036 3.43-12.052 1.626-2.197 5.449-5.054 8.497-6.351 4.072-1.731 6.885-2.15 10.598-1.58 2.779 0.427 6.883 2.119 9.121 3.76 2.236 1.641 4.901 4.535 5.922 6.432 1.085 2.016 1.855 6.632 1.855 11.106v7.656l5.881 1.421c3.235 0.783 9.209 3.123 13.275 5.2 4.067 2.080 10.291 6.561 13.831 9.962 3.718 3.569 7.995 9.353 10.118 13.687 2.026 4.128 4.298 10.345 5.049 13.814 0.753 3.469 1.368 9.384 1.368 13.141 0 3.76-0.851 9.984-1.894 13.831-1.044 3.85-3.604 10.079-5.691 13.844-2.087 3.762-6.666 9.599-10.177 12.963-3.684 3.533-10.043 7.848-15.048 10.211-5.352 2.523-11.981 4.537-17.332 5.261-4.766 0.644-14.516 1.185-21.667 1.2-10.759 0.022-13.695 0.436-17.035 2.394-2.219 1.302-5.142 4.111-6.495 6.244-1.59 2.506-2.462 5.993-2.465 9.852-0.002 4.374 0.802 7.117 3.016 10.245 1.66 2.35 4.949 5.152 7.305 6.229 3.64 1.66 9.299 1.958 37.53 1.982 29.737 0.022 33.775 0.258 38.317 2.241 2.789 1.219 6.361 3.955 7.934 6.078 1.648 2.224 3.099 6.249 3.423 9.494 0.388 3.864-0.124 7.027-1.629 10.072-1.204 2.443-4.43 5.866-7.166 7.607-4.706 2.996-5.934 3.191-22.711 3.577l-17.737 0.41v7.451c0 5.756-0.634 8.353-2.789 11.43-1.536 2.187-4.459 4.905-6.5 6.037-2.043 1.131-5.661 2.336-8.043 2.677-2.384 0.341-5.844 0.166-7.687-0.388zM357.096 482.848c-2.043-0.6-5.308-2.519-7.256-4.267s-4.318-4.959-5.264-7.136c-0.946-2.177-1.719-5.669-1.719-7.76 0-2.089 1.385-6.073 3.077-8.85 2.053-3.367 4.866-5.881 8.441-7.543 2.948-1.373 6.717-2.484 8.375-2.47 1.655 0.015 5.296 1.024 8.087 2.241 2.792 1.219 6.361 3.955 7.936 6.078 1.638 2.214 3.099 6.249 3.418 9.452 0.41 4.113-0.122 6.871-2.016 10.442-1.414 2.667-4.401 5.929-6.636 7.251s-6.012 2.682-8.394 3.026c-2.384 0.344-6.005 0.134-8.048-0.463zM594.647 482.818c-2.133-0.614-5.861-3.23-8.287-5.81-2.504-2.665-4.776-6.573-5.259-9.045-0.475-2.431-0.219-6.378 0.578-8.936 0.788-2.523 3.116-6.207 5.179-8.19s5.949-4.237 8.638-5.013c3.762-1.085 6.012-1.083 9.782 0.002 2.694 0.775 6.556 2.753 8.585 4.393s4.347 4.905 5.154 7.251c0.805 2.35 1.195 6.568 0.866 9.377s-1.831 6.771-3.338 8.804c-1.507 2.033-4.245 4.447-6.088 5.364s-5.281 1.948-7.641 2.292c-2.36 0.346-6.034 0.124-8.168-0.49zM669.372 359.192c20.278-5.837 57.758-16.601 83.295-23.92s46.919-13.756 47.516-14.302c0.6-0.546-7.756-5.261-18.571-10.476-10.813-5.215-20.877-10.742-22.362-12.286-1.487-1.541-3.299-4.311-4.023-6.154-0.729-1.843-1.321-5.218-1.321-7.5 0-2.28 0.89-5.861 1.98-7.956 1.087-2.097 11.525-13.049 23.196-24.34l21.216-20.529-12.958-12.503c-7.129-6.878-13.495-12.505-14.151-12.505-0.653 0-10.974 9.321-22.938 20.709-18.554 17.664-22.56 20.919-27.26 22.135-4.142 1.073-6.663 1.095-10.147 0.090-2.55-0.734-6.193-2.604-8.097-4.157-2.031-1.655-7.541-10.742-13.334-21.989-5.43-10.542-10.206-19.168-10.613-19.168-0.405 0-12.081 36.557-25.944 81.242-13.865 44.683-25.446 81.91-25.737 82.729-0.288 0.817 0.354 1.487 1.431 1.487 1.075 0 18.547-4.774 38.822-10.611z" />
<glyph unicode="&#xe914;" d="M541.091 623.236c19.665-68.577 100.848-68.577 100.848-68.577h151.273c54.207 0 50.424-50.424 50.424-50.424l-88.242-352.97c-12.355-49.642-63.030-50.424-63.030-50.424h-151.273c-75.636 0-100.848 50.424-176.485 50.424h-75.636v403.394c100.848 0 100.848 100.848 100.848 100.848v151.273c0 27.733 22.691 50.424 50.424 50.424 50.424 0 100.848-50.424 100.848-100.849v-133.12z" />
<glyph unicode="&#xe915;" d="M288.97 151.273v-50.424h-201.697v453.818h201.697v-403.394z" />
<glyph unicode="&#xe916;" d="M541.091 655.515c0-100.848 100.848-100.848 100.848-100.848h151.273c54.106 0 50.424-50.424 50.424-50.424l-88.242-352.97c-12.429-49.718-63.030-50.424-63.030-50.424h-151.222c-75.636 0-100.9 50.424-176.536 50.424M288.97 479.030v-378.182h-201.697v453.818h201.697c100.848 0 100.848 100.848 100.848 100.848v151.273c0 27.834 22.59 50.424 50.424 50.424 50.424 0 100.848-50.424 100.848-100.848v-252.121c0 0 0.051-100.848-100.797-100.848" />
<glyph unicode="&#xe917;" d="M828.121 800.206v-125.305h-756.364v125.305c0 14.143 11.345 25.968 25.212 25.968h705.939c13.867 0 25.212-11.824 25.212-25.968z" />
<glyph unicode="&#xe918;" d="M828.121 674.909v-580.636c0-13.866-11.345-24.455-25.212-24.455h-705.939c-13.867 0-25.212 10.589-25.212 24.455v580.636h756.364z" />
<glyph unicode="&#xe919;" d="M223.030 321.939h252.121v201.697h-252.121v-201.697z" />
<glyph unicode="&#xe91a;" d="M147.394 674.909h680.727v125.431c0 13.917-11.27 25.842-25.212 25.842h-705.939c-13.942 0-25.212-11.925-25.212-25.842v-705.939c0-13.942 11.27-24.582 25.212-24.582h705.939c13.942 0 25.212 10.64 25.212 24.582v504.872M576 523.636h100.848M576 422.788h100.848M576 321.939h100.848M223.030 221.091h453.818M223.030 321.939h252.121v201.697h-252.121v-201.697z" />
<glyph unicode="&#xe942;" glyph-name="phone" d="M704 320c-64-64-64-128-128-128s-128 64-192 128-128 128-128 192 64 64 128 128-128 256-192 256-192-192-192-192c0-128 131.5-387.5 256-512s384-256 512-256c0 0 192 128 192 192s-192 256-256 192z" />
<glyph unicode="&#xe947;" glyph-name="location" d="M512 960c-176.732 0-320-143.268-320-320 0-320 320-704 320-704s320 384 320 704c0 176.732-143.27 320-320 320zM512 448c-106.040 0-192 85.96-192 192s85.96 192 192 192 192-85.96 192-192-85.96-192-192-192z" />
<glyph unicode="&#xe986;" glyph-name="search" d="M992.262 88.604l-242.552 206.294c-25.074 22.566-51.89 32.926-73.552 31.926 57.256 67.068 91.842 154.078 91.842 249.176 0 212.078-171.922 384-384 384-212.076 0-384-171.922-384-384s171.922-384 384-384c95.098 0 182.108 34.586 249.176 91.844-1-21.662 9.36-48.478 31.926-73.552l206.294-242.552c35.322-39.246 93.022-42.554 128.22-7.356s31.892 92.898-7.354 128.22zM384 320c-141.384 0-256 114.616-256 256s114.616 256 256 256 256-114.616 256-256-114.614-256-256-256z" />
<glyph unicode="&#xea32;" glyph-name="arrow-up" d="M512 928l-480-480h288v-512h384v512h288z" />
<glyph unicode="&#xea34;" glyph-name="arrow-right" d="M992 448l-480 480v-288h-512v-384h512v-288z" />
<glyph unicode="&#xea36;" glyph-name="arrow-down" d="M512-32l480 480h-288v512h-384v-512h-288z" />
<glyph unicode="&#xea38;" glyph-name="arrow-left" d="M32 448l480-480v288h512v384h-512v288z" />
<glyph unicode="&#xea90;" glyph-name="facebook" d="M608 768h160v192h-160c-123.514 0-224-100.486-224-224v-96h-128v-192h128v-512h192v512h160l32 192h-192v96c0 17.346 14.654 32 32 32z" />
<glyph unicode="&#xea92;" glyph-name="instagram" d="M512 867.8c136.8 0 153-0.6 206.8-3 50-2.2 77-10.6 95-17.6 23.8-9.2 41-20.4 58.8-38.2 18-18 29-35 38.4-58.8 7-18 15.4-45.2 17.6-95 2.4-54 3-70.2 3-206.8s-0.6-153-3-206.8c-2.2-50-10.6-77-17.6-95-9.2-23.8-20.4-41-38.2-58.8-18-18-35-29-58.8-38.4-18-7-45.2-15.4-95-17.6-54-2.4-70.2-3-206.8-3s-153 0.6-206.8 3c-50 2.2-77 10.6-95 17.6-23.8 9.2-41 20.4-58.8 38.2-18 18-29 35-38.4 58.8-7 18-15.4 45.2-17.6 95-2.4 54-3 70.2-3 206.8s0.6 153 3 206.8c2.2 50 10.6 77 17.6 95 9.2 23.8 20.4 41 38.2 58.8 18 18 35 29 58.8 38.4 18 7 45.2 15.4 95 17.6 53.8 2.4 70 3 206.8 3zM512 960c-139 0-156.4-0.6-211-3-54.4-2.4-91.8-11.2-124.2-23.8-33.8-13.2-62.4-30.6-90.8-59.2-28.6-28.4-46-57-59.2-90.6-12.6-32.6-21.4-69.8-23.8-124.2-2.4-54.8-3-72.2-3-211.2s0.6-156.4 3-211c2.4-54.4 11.2-91.8 23.8-124.2 13.2-33.8 30.6-62.4 59.2-90.8 28.4-28.4 57-46 90.6-59 32.6-12.6 69.8-21.4 124.2-23.8 54.6-2.4 72-3 211-3s156.4 0.6 211 3c54.4 2.4 91.8 11.2 124.2 23.8 33.6 13 62.2 30.6 90.6 59s46 57 59 90.6c12.6 32.6 21.4 69.8 23.8 124.2 2.4 54.6 3 72 3 211s-0.6 156.4-3 211c-2.4 54.4-11.2 91.8-23.8 124.2-12.6 34-30 62.6-58.6 91-28.4 28.4-57 46-90.6 59-32.6 12.6-69.8 21.4-124.2 23.8-54.8 2.6-72.2 3.2-211.2 3.2v0zM512 711c-145.2 0-263-117.8-263-263s117.8-263 263-263 263 117.8 263 263c0 145.2-117.8 263-263 263zM512 277.4c-94.2 0-170.6 76.4-170.6 170.6s76.4 170.6 170.6 170.6c94.2 0 170.6-76.4 170.6-170.6s-76.4-170.6-170.6-170.6zM846.8 721.4c0-33.91-27.49-61.4-61.4-61.4s-61.4 27.49-61.4 61.4c0 33.91 27.49 61.4 61.4 61.4s61.4-27.49 61.4-61.4z" />
<glyph unicode="&#xea93;" glyph-name="whatsapp" d="M873 811.2c-95.8 96-223.2 148.8-359 148.8-279.6 0-507.2-227.6-507.2-507.4 0-89.4 23.4-176.8 67.8-253.6l-72-263 269 70.6c74.2-40.4 157.6-61.8 242.4-61.8h0.2c0 0 0 0 0 0 279.6 0 507.4 227.6 507.4 507.4 0 135.6-52.8 263-148.6 359zM514.2 30.4v0c-75.8 0-150 20.4-214.8 58.8l-15.4 9.2-159.6-41.8 42.6 155.6-10 16c-42.4 67-64.6 144.6-64.6 224.4 0 232.6 189.2 421.8 422 421.8 112.6 0 218.6-44 298.2-123.6 79.6-79.8 123.4-185.6 123.4-298.4-0.2-232.8-189.4-422-421.8-422zM745.4 346.4c-12.6 6.4-75 37-86.6 41.2s-20 6.4-28.6-6.4c-8.4-12.6-32.8-41.2-40.2-49.8-7.4-8.4-14.8-9.6-27.4-3.2s-53.6 19.8-102 63c-37.6 33.6-63.2 75.2-70.6 87.8s-0.8 19.6 5.6 25.8c5.8 5.6 12.6 14.8 19 22.2s8.4 12.6 12.6 21.2c4.2 8.4 2.2 15.8-1 22.2s-28.6 68.8-39 94.2c-10.2 24.8-20.8 21.4-28.6 21.8-7.4 0.4-15.8 0.4-24.2 0.4s-22.2-3.2-33.8-15.8c-11.6-12.6-44.4-43.4-44.4-105.8s45.4-122.6 51.8-131.2c6.4-8.4 89.4-136.6 216.6-191.4 30.2-13 53.8-20.8 72.2-26.8 30.4-9.6 58-8.2 79.8-5 24.4 3.6 75 30.6 85.6 60.2s10.6 55 7.4 60.2c-3 5.6-11.4 8.8-24.2 15.2z" />
<glyph unicode="&#xea96;" glyph-name="twitter" d="M1024 733.6c-37.6-16.8-78.2-28-120.6-33 43.4 26 76.6 67.2 92.4 116.2-40.6-24-85.6-41.6-133.4-51-38.4 40.8-93 66.2-153.4 66.2-116 0-210-94-210-210 0-16.4 1.8-32.4 5.4-47.8-174.6 8.8-329.4 92.4-433 219.6-18-31-28.4-67.2-28.4-105.6 0-72.8 37-137.2 93.4-174.8-34.4 1-66.8 10.6-95.2 26.2 0-0.8 0-1.8 0-2.6 0-101.8 72.4-186.8 168.6-206-17.6-4.8-36.2-7.4-55.4-7.4-13.6 0-26.6 1.4-39.6 3.8 26.8-83.4 104.4-144.2 196.2-146-72-56.4-162.4-90-261-90-17 0-33.6 1-50.2 3 93.2-59.8 203.6-94.4 322.2-94.4 386.4 0 597.8 320.2 597.8 597.8 0 9.2-0.2 18.2-0.6 27.2 41 29.4 76.6 66.4 104.8 108.6z" />
<glyph unicode="&#xeab0;" glyph-name="github" d="M512.008 947.358c-282.738 0-512.008-229.218-512.008-511.998 0-226.214 146.704-418.132 350.136-485.836 25.586-4.738 34.992 11.11 34.992 24.632 0 12.204-0.48 52.542-0.696 95.324-142.448-30.976-172.504 60.41-172.504 60.41-23.282 59.176-56.848 74.916-56.848 74.916-46.452 31.778 3.51 31.124 3.51 31.124 51.4-3.61 78.476-52.766 78.476-52.766 45.672-78.27 119.776-55.64 149.004-42.558 4.588 33.086 17.852 55.68 32.506 68.464-113.73 12.942-233.276 56.85-233.276 253.032 0 55.898 20.004 101.574 52.76 137.428-5.316 12.9-22.854 64.972 4.952 135.5 0 0 43.006 13.752 140.84-52.49 40.836 11.348 84.636 17.036 128.154 17.234 43.502-0.198 87.336-5.886 128.256-17.234 97.734 66.244 140.656 52.49 140.656 52.49 27.872-70.528 10.35-122.6 5.036-135.5 32.82-35.856 52.694-81.532 52.694-137.428 0-196.654-119.778-239.95-233.79-252.624 18.364-15.89 34.724-47.046 34.724-94.812 0-68.508-0.596-123.644-0.596-140.508 0-13.628 9.222-29.594 35.172-24.566 203.322 67.776 349.842 259.626 349.842 485.768 0 282.78-229.234 511.998-511.992 511.998z" />
<glyph unicode="&#xeac5;" glyph-name="skype" d="M425.6 922.6c-1.6 1-3.4 1.8-5 2.6-1.8-0.4-3.4-0.6-5.2-1l10.2-1.6zM36.8 539c-0.4-1.8-0.6-3.6-0.8-5.2 1-1.6 1.6-3.2 2.6-4.8l-1.8 10zM986.8 357.4c0.4 1.8 0.6 3.6 1 5.4-1 1.6-1.6 3.2-2.6 4.8l1.6-10.2zM592-23c1.6-1 3.4-1.8 5-2.6 1.8 0.4 3.6 0.6 5.4 0.8l-10.4 1.8zM987.8 362.8c-0.4-1.8-0.6-3.6-1-5.4l-1.8 10.4c1-1.8 1.8-3.4 2.8-5 5.2 28.8 8 58.2 8 87.6 0 65.2-12.8 128.6-38 188.2-24.4 57.6-59.2 109.4-103.6 153.8s-96.2 79.2-153.6 103.6c-59.6 25.2-123 38-188.2 38-30.8 0-61.6-2.8-91.6-8.6 0 0-0.2 0-0.2 0 1.6-0.8 3.4-1.6 5-2.6l-10.2 1.6c1.8 0.4 3.4 0.6 5.2 1-41.2 21.8-87.4 33.6-134.2 33.6-76.4 0-148.4-29.8-202.4-83.8s-83.8-126-83.8-202.4c0-48.6 12.6-96.6 36-138.8 0.4 1.8 0.6 3.6 0.8 5.2l1.8-10.2c-1 1.6-1.8 3.2-2.6 4.8-4.8-27.4-7.2-55.4-7.2-83.4 0-65.2 12.8-128.6 38-188.2 24.4-57.6 59.2-109.2 103.6-153.6s96.2-79.2 153.8-103.6c59.6-25.2 123-38 188.2-38 28.4 0 56.8 2.6 84.6 7.6-1.6 1-3.2 1.8-5 2.6l10.4-1.8c-1.8-0.4-3.6-0.6-5.4-0.8 42.8-24.2 91.4-37.2 140.8-37.2 76.4 0 148.4 29.8 202.4 83.8s83.8 126 83.8 202.4c-0.2 48.6-12.8 96.6-36.4 139.2zM514.2 154.2c-171.8 0-248.6 84.4-248.6 147.8 0 32.4 24 55.2 57 55.2 73.6 0 54.4-105.6 191.6-105.6 70.2 0 109 38.2 109 77.2 0 23.4-11.6 49.4-57.8 60.8l-152.8 38.2c-123 30.8-145.4 97.4-145.4 160 0 129.8 122.2 178.6 237 178.6 105.8 0 230.4-58.4 230.4-136.4 0-33.4-29-52.8-62-52.8-62.8 0-51.2 86.8-177.6 86.8-62.8 0-97.4-28.4-97.4-69s49.6-53.6 92.6-63.4l113.2-25.2c123.8-27.6 155.2-100 155.2-168 0-105.4-81-184.2-244.4-184.2z" />
<glyph unicode="&#xeaca;" glyph-name="linkedin2" d="M384 576h177.106v-90.782h2.532c24.64 44.194 84.958 90.782 174.842 90.782 186.946 0 221.52-116.376 221.52-267.734v-308.266h-184.61v273.278c0 65.184-1.334 149.026-96.028 149.026-96.148 0-110.82-70.986-110.82-144.292v-278.012h-184.542v576zM64 576h192v-576h-192v576zM256 736c0-53.019-42.981-96-96-96s-96 42.981-96 96c0 53.019 42.981 96 96 96s96-42.981 96-96z" />
</font>
</defs>
</svg>
