<?xml version="1.0" encoding="utf-8"?>
<!-- Generator: Adobe Illustrator 24.0.2, SVG Export Plug-In . SVG Version: 6.00 Build 0)  -->
<svg version="1.1" id="Слой_1" xmlns="http://www.w3.org/2000/svg" xmlns:xlink="http://www.w3.org/1999/xlink" x="0px" y="0px"
	 viewBox="0 0 118.9 23" style="enable-background:new 0 0 118.9 23;" xml:space="preserve">
<style type="text/css">
	.st0{fill:#FF3C00;}
</style>
<g>
	<path d="M76.9,22.2h-2.9V8.4h2.8v1.2c0.8-0.9,2-1.4,3.2-1.3c2.7-0.1,5,2.1,5.1,4.8c0,0.1,0,0.3,0,0.4c0.2,2.7-1.9,5-4.6,5.2
		c-0.2,0-0.3,0-0.5,0c-1.1,0.1-2.3-0.4-3-1.2L76.9,22.2L76.9,22.2z M79.4,10.7c-1.4,0-2.6,1.1-2.6,2.5c0,0.1,0,0.2,0,0.3
		c-0.1,1.4,0.9,2.7,2.4,2.8c1.4,0.1,2.7-0.9,2.8-2.4c0-0.1,0-0.3,0-0.4c0.1-1.4-0.9-2.7-2.3-2.8C79.6,10.7,79.5,10.7,79.4,10.7z
		 M44,18.8c-4.1,0-7.1-2.9-7.1-6.8s3-6.8,7.2-6.8c2.1-0.1,4.1,0.8,5.4,2.3l-2,1.8c-0.8-1-2-1.6-3.3-1.5C42,7.6,40.1,9.4,40,11.6
		c0,0.1,0,0.2,0,0.4c-0.1,2.2,1.6,4.1,3.8,4.2c0.1,0,0.2,0,0.4,0c1.3,0,2.5-0.6,3.3-1.6l2,1.8C48.1,18,46.1,18.9,44,18.8L44,18.8z
		 M67.6,18.7c-1.5,0-3-0.3-4.4-1.1l1-2.1c1.1,0.6,2.3,1,3.5,1c1.3,0,1.9-0.3,1.9-0.9c0-0.6-0.9-0.8-2.1-0.9
		c-1.8-0.3-4.1-0.6-4.1-3.1c0-2,1.8-3.3,4.7-3.3c1.4,0,2.7,0.3,3.9,0.9l-1,2.1c-0.9-0.5-1.9-0.8-2.9-0.8c-1.2,0-1.9,0.3-1.9,0.9
		c0,0.7,1,0.8,2.1,1c1.8,0.3,4,0.6,4,3C72.4,17.4,70.5,18.7,67.6,18.7L67.6,18.7z M61.8,18.5h-2.9V8.4h2.9V18.5L61.8,18.5z M54,18.5
		H51V8.4h2.8v1.3c0.8-1,2.2-1.6,3.5-1.5V11l-0.1,0h0c-0.2,0-0.3,0-0.5,0c-1.4-0.1-2.6,0.9-2.7,2.3c0,0.2,0,0.4,0,0.6L54,18.5
		L54,18.5z M60.3,7c-0.9,0.1-1.7-0.6-1.8-1.5c0,0,0-0.1,0-0.1c0-0.9,0.8-1.7,1.7-1.6c0,0,0.1,0,0.1,0c0.9-0.1,1.7,0.5,1.8,1.4
		c0,0,0,0.1,0,0.1c0,0.9-0.7,1.7-1.7,1.7C60.4,7,60.3,7,60.3,7z"/>
	<path class="st0" d="M92.6,18.6h-3.3L85,5.4h3.2l3,9.3l3.1-9.3H97l3,9.3l3.1-9.3h2.9l-1.4,4.3l-2.9,8.8h-3.3l-2.9-8.9L92.6,18.6
		L92.6,18.6z M110.5,18.6h-3.1V5.4h5.7c3.5,0,5.7,1.8,5.7,4.8s-2.2,4.8-5.7,4.8h-2.7V18.6L110.5,18.6z M110.5,7.9v4.6h2.5
		c1.8,0,2.8-0.8,2.8-2.3s-1-2.3-2.8-2.3L110.5,7.9z"/>
	<path class="st0" d="M11.6,4.1L11.6,4.1c1.2,0.7,1.6,2.2,0.9,3.4L4.7,21.1c-0.7,1.2-2.2,1.6-3.4,0.9l0,0c-1.2-0.7-1.6-2.2-0.9-3.4
		L8.2,5C8.9,3.8,10.4,3.4,11.6,4.1z"/>
	<path class="st0" d="M22.9,0.3L22.9,0.3c1.2,0.7,1.6,2.2,0.9,3.4L16,17.4c-0.7,1.2-2.2,1.6-3.4,0.9l0,0c-1.2-0.7-1.6-2.2-0.9-3.4
		l7.9-13.6C20.2,0.1,21.7-0.4,22.9,0.3z"/>
	<path d="M30.5,4.7L30.5,4.7c1.2,0.7,1.6,2.2,0.9,3.4l-7.9,13.6c-0.7,1.2-2.2,1.6-3.4,0.9l0,0c-1.2-0.7-1.6-2.2-0.9-3.4L27,5.7
		C27.7,4.5,29.3,4,30.5,4.7z"/>
</g>
</svg>
